<svg xmlns="http://www.w3.org/2000/svg" fill="#fff" width="24" height="24" viewBox="0 0 24 24"><path d="M12 8c-2.209 0-4 1.791-4 4s1.791 4 4 4 4-1.791 4-4-1.791-4-4-4zm0 6c-1.103 0-2-.897-2-2s.897-2 2-2 2 .897 2 2-.897 2-2 2zm0-12c5.514 0 10 4.486 10 10s-4.486 10-10 10-10-4.486-10-10 4.486-10 10-10zm0-2c-6.627 0-12 5.373-12 12s5.373 12 12 12 12-5.373 12-12-5.373-12-12-12zm4.67 4.321c1.228.75 2.26 1.781 3.009 3.009l-2.767 1.23c-.402-.572-.9-1.07-1.472-1.471l1.23-2.768zm-9.34 15.358c-1.227-.749-2.259-1.781-3.008-3.008l2.767-1.23c.401.572.899 1.07 1.471 1.471l-1.23 2.767z"/></svg>